# xmcd
#
# Track frame offsets:
#	150
#	19157
#	39327
#	53667
#	73106
#	93742
#	115522
#	132810
#	155327
#	174398
#
# Disc length: 2663 seconds
#
# Revision: 1
# Processed by: cddbd v1.5.2PL0 Copyright (c) Steve Scherf et al.
# Submitted via: EasyCDDAExtractor 15.1.0.1
#
DISCID=790a650a
DTITLE=Andre Lee - 2003 Simply Dre
DYEAR=2003
DGENRE=Blues
TTITLE0=Pony Ride
TTITLE1=Old School Girl
TTITLE2=No Other Lover
TTITLE3=Who
TTITLE4=Take Care Of You
TTITLE5=If I Was Your Man
TTITLE6=I Wanna Be Your Lover
TTITLE7=You're So Special
TTITLE8=Got To Get Away
TTITLE9=Pony Ride (Remix)
EXTD=
EXTT0=
EXTT1=
EXTT2=
EXTT3=
EXTT4=
EXTT5=
EXTT6=
EXTT7=
EXTT8=
EXTT9=
PLAYORDER=
